<svg xmlns="http://www.w3.org/2000/svg" width="1320" height="500" viewBox="0 0 1320 500">
<rect width="100%" height="100%" fill="#f7f4ed"/>
<style>text{font-family:Verdana,sans-serif;fill:#17202a}.title{font-size:23px;font-weight:700}.sub{font-size:13px;fill:#566573}.panel{font-size:17px;font-weight:700}.label{font-size:12px}.value{font-size:12px;font-weight:700}</style>
<text x="660" y="38" text-anchor="middle" class="title">SignalForge Radeon baseline · gfx1100 · ROCm 7.2.1</text>
<text x="660" y="61" text-anchor="middle" class="sub">8 workloads × 5 repetitions · deterministic contract quality only</text>
<rect x="35" y="82" width="390" height="348" rx="12" fill="#ffffff" stroke="#d5d8dc"/>
<text x="230" y="112" text-anchor="middle" class="panel">Contract checks</text>
<rect x="77" y="155.0" width="72" height="245.0" rx="4" fill="#d95f02"/>
<text x="113" y="147.0" text-anchor="middle" class="value">100.0%</text>
<text x="113" y="420" text-anchor="middle" class="label">gemma4</text>
<rect x="193" y="155.0" width="72" height="245.0" rx="4" fill="#1b9e77"/>
<text x="229" y="147.0" text-anchor="middle" class="value">100.0%</text>
<text x="229" y="420" text-anchor="middle" class="label">qwen3</text>
<rect x="309" y="185.6" width="72" height="214.4" rx="4" fill="#355c9a"/>
<text x="345" y="177.6" text-anchor="middle" class="value">87.5%</text>
<text x="345" y="420" text-anchor="middle" class="label">granite4.1</text>
<rect x="465" y="82" width="390" height="348" rx="12" fill="#ffffff" stroke="#d5d8dc"/>
<text x="660" y="112" text-anchor="middle" class="panel">Decode throughput</text>
<rect x="507" y="188.2" width="72" height="211.8" rx="4" fill="#d95f02"/>
<text x="543" y="180.2" text-anchor="middle" class="value">86.5 tok/s</text>
<text x="543" y="420" text-anchor="middle" class="label">gemma4</text>
<rect x="623" y="335.4" width="72" height="64.6" rx="4" fill="#1b9e77"/>
<text x="659" y="327.4" text-anchor="middle" class="value">26.4 tok/s</text>
<text x="659" y="420" text-anchor="middle" class="label">qwen3</text>
<rect x="739" y="338.8" width="72" height="61.2" rx="4" fill="#355c9a"/>
<text x="775" y="330.8" text-anchor="middle" class="value">25.0 tok/s</text>
<text x="775" y="420" text-anchor="middle" class="label">granite4.1</text>
<rect x="895" y="82" width="390" height="348" rx="12" fill="#ffffff" stroke="#d5d8dc"/>
<text x="1090" y="112" text-anchor="middle" class="panel">Duration p50</text>
<rect x="937" y="342.8" width="72" height="57.2" rx="4" fill="#d95f02"/>
<text x="973" y="334.8" text-anchor="middle" class="value">1.2 s</text>
<text x="973" y="420" text-anchor="middle" class="label">gemma4</text>
<rect x="1053" y="243.8" width="72" height="156.2" rx="4" fill="#1b9e77"/>
<text x="1089" y="235.8" text-anchor="middle" class="value">3.2 s</text>
<text x="1089" y="420" text-anchor="middle" class="label">qwen3</text>
<rect x="1169" y="181.8" width="72" height="218.2" rx="4" fill="#355c9a"/>
<text x="1205" y="173.8" text-anchor="middle" class="value">4.5 s</text>
<text x="1205" y="420" text-anchor="middle" class="label">granite4.1</text>
<text x="660" y="470" text-anchor="middle" class="sub">Source: evidence/radeon-baseline.json · Gemma selected; Qwen retained as long-context alternate</text>
</svg>
